<svg xmlns="http://www.w3.org/2000/svg" xmlns:xlink="http://www.w3.org/1999/xlink" fill="#ffffff" height="800px" width="800px" version="1.1" id="Capa_1" viewBox="0 0 379.281 379.281" xml:space="preserve">
<g>
	<path d="M339.641,0h-300c-5.514,0-10,4.486-10,10v359.281c0,5.514,4.486,10,10,10h300c5.514,0,10-4.486,10-10V10   C349.641,4.486,345.154,0,339.641,0z M329.641,359.281h-280V96.557h280V359.281z" fill="#ffffff"/>
	<path d="M89.641,175.641h200c2.762,0,5-2.239,5-5v-34c0-2.761-2.238-5-5-5h-200c-2.762,0-5,2.239-5,5v34   C84.641,173.402,86.879,175.641,89.641,175.641z" fill="#ffffff"/>
	<path d="M89.641,322.641h91c2.762,0,5-2.239,5-5v-95c0-2.761-2.238-5-5-5h-91c-2.762,0-5,2.239-5,5v95   C84.641,320.402,86.879,322.641,89.641,322.641z" fill="#ffffff"/>
	<path d="M289.641,217.641h-70c-2.762,0-5,2.239-5,5v29c0,2.761,2.238,5,5,5h70c2.762,0,5-2.239,5-5v-29   C294.641,219.879,292.402,217.641,289.641,217.641z" fill="#ffffff"/>
	<path d="M289.641,282.324h-70c-2.762,0-5,2.239-5,5v29c0,2.761,2.238,5,5,5h70c2.762,0,5-2.239,5-5v-29   C294.641,284.563,292.402,282.324,289.641,282.324z" fill="#ffffff"/>
</g>
</svg>